{
  "accessors": [
    {
      "bufferView": 2,
      "componentType": 5126,
      "count": 778,
      "max": [
        3.3499999046325684,
        4.5400390625,
        2.6090352535247803
      ],
      "min": [
        -3.349843740463257,
        -4.540078639984131,
        -2.6090354919433594
      ],
      "type": "VEC3"
    },
    {
      "bufferView": 2,
      "byteOffset": 9336,
      "componentType": 5126,
      "count": 778,
      "max": [
        1.0,
        1.0,
        1.0
      ],
      "min": [
        -1.0,
        -1.0,
        -1.0
      ],
      "type": "VEC3"
    },
    {
      "bufferView": 1,
      "componentType": 5126,
      "count": 778,
      "max": [
        0.9990000128746033,
        0.9989857077598572
      ],
      "min": [
        0.0010000000474974513,
        0.0010000000474974513
      ],
      "type": "VEC2"
    },
    {
      "bufferView": 1,
      "byteOffset": 6224,
      "componentType": 5126,
      "count": 778,
      "max": [
        148340.203125,
        64165.64453125
      ],
      "min": [
        -282.4921875,
        -575.2539672851563
      ],
      "type": "VEC2"
    },
    {
      "bufferView": 1,
      "byteOffset": 12448,
      "componentType": 5126,
      "count": 778,
      "max": [
        0.9990000128746033,
        0.9989857077598572
      ],
      "min": [
        0.0010000000474974513,
        0.0010000000474974513
      ],
      "type": "VEC2"
    },
    {
      "bufferView": 0,
      "componentType": 5125,
      "count": 1356,
      "type": "SCALAR"
    }
  ],
  "asset": {
    "extras": {
      "author": "hy123 (https://sketchfab.com/hy123)",
      "license": "CC-BY-4.0 (http://creativecommons.org/licenses/by/4.0/)",
      "source": "https://sketchfab.com/3d-models/0007-6997ca6709464622a0e86013e0b44246",
      "title": "0点的007"
    },
    "generator": "Sketchfab-13.66.0",
    "version": "2.0"
  },
  "bufferViews": [
    {
      "buffer": 0,
      "byteLength": 5424,
      "name": "floatBufferViews",
      "target": 34963
    },
    {
      "buffer": 0,
      "byteLength": 18672,
      "byteOffset": 5424,
      "byteStride": 8,
      "name": "floatBufferViews",
      "target": 34962
    },
    {
      "buffer": 0,
      "byteLength": 18672,
      "byteOffset": 24096,
      "byteStride": 12,
      "name": "floatBufferViews",
      "target": 34962
    }
  ],
  "buffers": [
    {
      "byteLength": 42768,
      "uri": "scene.bin"
    }
  ],
  "images": [
    {
      "uri": "textures/M_hc_1floor_room007_ok_baseColor.jpeg"
    },
    {
      "uri": "textures/M_hc_1floor_room007_ok_emissive.jpeg"
    }
  ],
  "materials": [
    {
      "emissiveFactor": [
        0.481132,
        0.481132,
        0.481132
      ],
      "emissiveTexture": {
        "index": 1
      },
      "name": "M_hc_1floor_room007_ok",
      "pbrMetallicRoughness": {
        "baseColorTexture": {
          "index": 0
        },
        "metallicFactor": 0.165
      }
    }
  ],
  "meshes": [
    {
      "name": "Object_0",
      "primitives": [
        {
          "attributes": {
            "NORMAL": 1,
            "POSITION": 0,
            "TEXCOORD_0": 2,
            "TEXCOORD_1": 3,
            "TEXCOORD_2": 4
          },
          "indices": 5,
          "material": 0,
          "mode": 4
        }
      ]
    }
  ],
  "nodes": [
    {
      "children": [
        1
      ],
      "matrix": [
        1.0,
        0.0,
        0.0,
        0.0,
        0.0,
        2.220446049250313e-16,
        -1.0,
        0.0,
        0.0,
        1.0,
        2.220446049250313e-16,
        0.0,
        0.0,
        0.0,
        0.0,
        1.0
      ],
      "name": "Sketchfab_model"
    },
    {
      "children": [
        2
      ],
      "name": "root"
    },
    {
      "children": [
        3
      ],
      "matrix": [
        1.0,
        0.0,
        0.0,
        0.0,
        0.0,
        2.220446049250313e-16,
        1.0,
        0.0,
        0.0,
        -1.0,
        2.220446049250313e-16,
        0.0,
        0.0,
        0.0,
        0.0,
        1.0
      ],
      "name": "GLTF_SceneRootNode"
    },
    {
      "children": [
        4
      ],
      "matrix": [
        1.0,
        -0.0,
        0.0,
        0.0,
        0.0,
        0.0,
        1.000000238418579,
        0.0,
        -0.0,
        -1.000000238418579,
        0.0,
        0.0,
        0.0,
        0.0,
        637.54638671875,
        1.0
      ],
      "name": "hc_1floor_room007_0"
    },
    {
      "mesh": 0,
      "name": "Object_4"
    }
  ],
  "samplers": [
    {
      "magFilter": 9729,
      "minFilter": 9729,
      "wrapS": 10497,
      "wrapT": 10497
    }
  ],
  "scene": 0,
  "scenes": [
    {
      "name": "Sketchfab_Scene",
      "nodes": [
        0
      ]
    }
  ],
  "textures": [
    {
      "sampler": 0,
      "source": 0
    },
    {
      "sampler": 0,
      "source": 1
    }
  ]
}
